IKResults
version=1
nRows=10
nColumns=40
inDegrees=yes

Units are S.I. units (second, meters, Newtons, ...)
If the header above contains a line with 'inDegrees', this indicates whether rotational values are in degrees (yes) or radians (no).

endheader
time	pelvis_tilt	pelvis_list	pelvis_rotation	pelvis_tx	pelvis_ty	pelvis_tz	hip_flexion_r	hip_adduction_r	hip_rotation_r	knee_angle_r	knee_angle_r_beta	ankle_angle_r	subtalar_angle_r	mtp_angle_r	hip_flexion_l	hip_adduction_l	hip_rotation_l	knee_angle_l	knee_angle_l_beta	ankle_angle_l	subtalar_angle_l	mtp_angle_l	lumbar_extension	lumbar_bending	lumbar_rotation	arm_flex_r	arm_add_r	arm_rot_r	elbow_flex_r	pro_sup_r	wrist_flex_r	wrist_dev_r	arm_flex_l	arm_add_l	arm_rot_l	elbow_flex_l	pro_sup_l	wrist_flex_l	wrist_dev_l
      7.12500000	     26.81181178	      6.92603219	   -174.49614876	      0.37145153	      0.63304620	     -0.93943518	     71.57189416	    -45.20869749	    -10.42279471	     51.03766819	      0.89077535	     -7.21115514	      0.00000000	      0.00000000	     86.45364020	    -40.54941796	      6.29731704	     47.29327736	      0.82542340	    -12.27331944	      0.00000000	      0.00000000	    -35.19382964	      2.09503883	      2.13841993	     53.77196248	    -17.79685139	     86.26164950	     19.17342556	     73.13712737	      0.00000000	      0.00000000	     55.43772971	    -13.71384966	     76.73081788	     13.33445775	     65.73052196	      0.00000000	      0.00000000
      7.13000000	     26.75748597	      6.91868860	   -174.52650459	      0.37123993	      0.63359310	     -0.93945940	     71.43610271	    -45.17691114	    -10.51614278	     50.98046791	      0.88977702	     -7.16407541	      0.00000000	      0.00000000	     86.23886435	    -40.56874925	      6.26918000	     47.14067277	      0.82275995	    -12.19533100	      0.00000000	      0.00000000	    -35.18859058	      2.09049827	      2.11841616	     53.72193775	    -17.69503206	     86.23673876	     19.07931346	     72.82436226	      0.00000000	      0.00000000	     55.29677430	    -13.57206172	     76.37346760	     13.05163825	     65.36562426	      0.00000000	      0.00000000
      7.13500000	     26.70167859	      7.06212041	   -174.55931954	      0.37091357	      0.63396201	     -0.93945198	     71.20803545	    -45.17214808	    -10.92361733	     51.01733385	      0.89042045	     -7.63232507	      0.00000000	      0.00000000	     86.30841349	    -40.69294750	      6.38192034	     47.10567164	      0.82214907	    -12.60814846	      0.00000000	      0.00000000	    -35.12353258	      2.27321432	      2.09785356	     52.63072514	    -17.34804122	     81.55719808	     18.80444305	     71.04537598	      0.00000000	      0.00000000	     54.75438717	    -13.61170629	     73.94570961	     13.33816503	     64.09943494	      0.00000000	      0.00000000
      7.14000000	     26.50687355	      7.00016647	   -174.56423659	      0.37058813	      0.63497369	     -0.93923804	     70.72178153	    -45.08143230	    -10.99879487	     50.65180879	      0.88404084	     -7.30005763	      0.00000000	      0.00000000	     85.89909775	    -40.72394657	      6.19809818	     47.05222738	      0.82121629	    -12.25175209	      0.00000000	      0.00000000	    -35.30951791	      2.20823306	      2.21950965	     53.69853387	    -17.81028980	     86.54704568	     19.23490700	     72.68499001	      0.00000000	      0.00000000	     55.19166964	    -13.77824388	     76.63288512	     13.53618340	     65.29010785	      0.00000000	      0.00000000
      7.14500000	     26.49525715	      7.04903953	   -174.51763651	      0.37039766	      0.63545819	     -0.93904976	     70.48714806	    -45.09670809	    -11.21082137	     50.50465956	      0.88147260	     -7.35480521	      0.00000000	      0.00000000	     85.83115508	    -40.68360030	      6.20908827	     46.95266513	      0.81947860	    -12.31303547	      0.00000000	      0.00000000	    -35.23707106	      2.27826481	      2.20498714	     53.62904688	    -17.77681955	     86.27914221	     19.07622094	     74.22082606	      0.00000000	      0.00000000	     55.35986263	    -13.95165145	     78.15789908	     13.64722233	     66.73350184	      0.00000000	      0.00000000
      7.15000000	     26.35037103	      7.00587758	   -174.52809889	      0.37001185	      0.63628323	     -0.93897773	     70.15578446	    -45.04350141	    -11.30626965	     50.30055096	      0.87791023	     -7.18316891	      0.00000000	      0.00000000	     85.48678551	    -40.73949766	      6.02807331	     46.85080586	      0.81770082	    -12.11595847	      0.00000000	      0.00000000	    -35.32574814	      2.24447464	      2.24736673	     53.43283977	    -17.75539621	     85.80675047	     18.96130919	     73.51851040	      0.00000000	      0.00000000	     55.13830170	    -13.52176320	     76.90101293	     13.08472884	     66.13648736	      0.00000000	      0.00000000
      7.15500000	     26.31023244	      7.07659137	   -174.54703043	      0.36980387	      0.63681509	     -0.93885700	     69.90735959	    -44.97737292	    -11.52240542	     50.14459844	      0.87518834	     -7.41441972	      0.00000000	      0.00000000	     85.43818891	    -40.80090040	      6.04411669	     46.77656173	      0.81640501	    -12.33417802	      0.00000000	      0.00000000	    -35.28322264	      2.35594059	      2.21677102	     53.55890761	    -17.74375186	     86.40566072	     19.03855645	     73.91225827	      0.00000000	      0.00000000	     55.06544137	    -13.89456139	     77.17076733	     13.66012244	     66.49677483	      0.00000000	      0.00000000
      7.16000000	     26.25313824	      7.09678945	   -174.51190006	      0.36956382	      0.63738742	     -0.93870611	     69.65322235	    -44.98992085	    -11.71657588	     49.99863847	      0.87264086	     -7.43492895	      0.00000000	      0.00000000	     85.32418130	    -40.79271238	      5.96712897	     46.72484890	      0.81550246	    -12.33878464	      0.00000000	      0.00000000	    -35.25336118	      2.40264077	      2.20673345	     53.48812244	    -17.80607144	     86.29804968	     19.11561991	     74.52658357	      0.00000000	      0.00000000	     55.13663210	    -13.90678298	     77.88190556	     13.61561174	     67.70542197	      0.00000000	      0.00000000
      7.16500000	     26.21481851	      7.15139210	   -174.50234032	      0.36934409	      0.63800480	     -0.93861236	     69.39553050	    -44.92944370	    -11.87793743	     49.81948113	      0.86951398	     -7.49107484	      0.00000000	      0.00000000	     85.19664806	    -40.80677376	      5.96092923	     46.58292386	      0.81302540	    -12.36597270	      0.00000000	      0.00000000	    -35.22277867	      2.47795113	      2.22540519	     53.44301201	    -17.79513097	     86.26888311	     19.06712676	     74.53946503	      0.00000000	      0.00000000	     55.01467043	    -13.87920633	     77.62041326	     13.56193122	     67.78828103	      0.00000000	      0.00000000
      7.17000000	     26.17420376	      7.10784581	   -174.48134835	      0.36909805	      0.63865986	     -0.93849676	     69.21150540	    -44.94470236	    -11.97572646	     49.64903854	      0.86653919	     -7.49534802	      0.00000000	      0.00000000	     84.97420625	    -40.81233921	      5.75850912	     46.46078709	      0.81089371	    -12.38588111	      0.00000000	      0.00000000	    -35.19115340	      2.47635988	      2.22509792	     53.35163010	    -17.81373493	     86.30572236	     19.02464875	     74.01939331	      0.00000000	      0.00000000	     54.83365146	    -13.76128335	     76.85616199	     13.55666509	     67.28515358	      0.00000000	      0.00000000
